<svg width="176" height="175" viewBox="0 0 176 175" fill="none" xmlns="http://www.w3.org/2000/svg">
<path d="M36 150L35.5 152.5L39.5 156L46 159.5L51 162.5L59 166L67.5 169L77 171H86.5H94L101 170.5L108.5 169L114.5 167L121 164.5L129.5 160L135.5 156L140 152.5L147.5 146L150.5 143L158 133L163.5 124L168 114L170.5 103.5L171.5 95.5V87.5H175.5V99L175 104.5L173.5 108.5L172.5 112.5L169.5 120.5L168 124.5L165 129.5L160.5 137.5L156.5 143L152.5 147.5L149.5 150.5L146.5 153.5L140 158.5L134 162.5L129.5 165L126 167L121 169L109 172.5L94 175L77 174.5L67.5 172.5L57 169.5L45 163.5L35.5 158L32.5 156L30 157H27.5H24L21.5 155.5L19.5 153.5L18 151.5L17.5 150V146.5L18 144L19.5 142L20.5 141L22.5 139.5L26.5 139H29L31.5 139.5L33.5 141L34.5 142L35.5 143L36 144V145.5V148V150Z" fill="#55AAC6"/>
<path d="M22 62L18 59V90.5L19.5 95.5L20.8153 99L23 103L26.5 107.5L30.5 111L36.5 114L41 115.5L45 116H68V139L70 143L73.5 147L76.5 150L81 152L84 152.5H92.5L97 151L100.5 149L103 146.5L106 142.5L107.5 139.5L108 138L108.5 136V113H47L43 112.5L39.5 112L36 111L34 109.5L32 108L30 106L28 103.5L26.5 101.5L25 99L23.5 96L22.5 93L22 90V62Z" fill="#55AAC6"/>
<path d="M158 115L154.5 112.5H154V81.5L153 79L151.5 76L150 73L148 70.5L145.5 68L142.5 66L139.5 64.5L137 63.5L134 62.5L131 62H120H100H68V35.5L70.5 31L72 29L73.5 27L75 25.5L77 24L79 23L82.5 22H93L95.5 23L99 25L102.5 28L105 30.5L106.5 33L107.5 35.5L108 38V59H127.5H131L134.5 59.5L137.5 60.5L140 61.5L143 63L147 65.5L150 68.5L152.5 71.5L155 76L156.5 79L157.5 81.5L158 84V115Z" fill="#55AAC6"/>
<path d="M27 90V67.5L132.5 68H134L136.5 69L139.5 71L142.5 74L145 76.5L146.5 78.5L148 81L149 83L149.5 84.5V107.5L44.5 107H41.5L38.5 105.5L36 104L34 102L32 100L30 97.5L28.5 95L27.5 92.5L27 90Z" fill="#55AAC6"/>
<path d="M140 25L140.5 22L139.5 21L135.5 18.5L132 16L127.5 13.5L124 11.5L116 8.5L110 6.5L102 4.5H94H87.5H80.5H74.7492L68.5 6L61.5 8L55.5 10L47.5 14L44 16L39.5 19L33 24.5L28 29L23.5 34L20 38.5L17.5 42L14.5 47L11.5 53L9.5 58L8 63.5L6.5 69L5.5 73L5 77.5V83V86.5H0V84.5V80L1 73L3 67L4.5 61L6.5 56L8.5 50L12.5 42L17 36L20.5 31L26.5 25L32.5 19L39 14C41.6667 12.6667 47 9.9 47 9.5C47 9.1 51.6667 7.33333 54 6.5L60.5 3.5L67.5 1.5L74.7492 0.5H80.5H87.5H94.5L103 1L112 3L118 4.5L125.5 8L129.5 10L133.5 12.5L137.5 15L142 19H143.5L145.5 18.5H148H151L153 19.5L155 21L156.5 22.5L157.5 24V25V28L157.277 29.5L156 32L154.5 33.5L153 34.5L151 35.5H148L145 35L142.5 33.5L141 31.5L140 29.5V27.5V25Z" fill="#55AAC6"/>
</svg>
